HIERARCHY
ROOT joint_Root
{
	OFFSET 0.0 0.0 0.0
	CHANNELS 6 Xposition Yposition Zposition Zrotation Xrotation Yrotation 
	JOINT Hips
	{
		OFFSET 4.5925 91.4895 -427.239
		CHANNELS 6 Xposition Yposition Zposition Zrotation Xrotation Yrotation 
		JOINT Spine
		{
			OFFSET 15.7357 0.0 0.0
			CHANNELS 6 Xposition Yposition Zposition Zrotation Xrotation Yrotation 
			JOINT Chest
			{
				OFFSET 8.98455 -0.406207 0.0
				CHANNELS 6 Xposition Yposition Zposition Zrotation Xrotation Yrotation 
				JOINT Neck
				{
					OFFSET 16.3773 0.0 0.0
					CHANNELS 6 Xposition Yposition Zposition Zrotation Xrotation Yrotation 
					JOINT Head
					{
						OFFSET 6.45672 0.0 0.0
						CHANNELS 6 Xposition Yposition Zposition Zrotation Xrotation Yrotation 
						End Site
						{
							OFFSET 0.0 0.0 0.0
						}
					}
				}
				JOINT Shoulder_L
				{
					OFFSET 12.9942 -0.242716 4.98039
					CHANNELS 6 Xposition Yposition Zposition Zrotation Xrotation Yrotation 
					JOINT UpperArm_L
					{
						OFFSET 5.34809 0.0 0.0
						CHANNELS 6 Xposition Yposition Zposition Zrotation Xrotation Yrotation 
						JOINT LowerArm_L
						{
							OFFSET 24.3286 1.87007e-05 0.0
							CHANNELS 6 Xposition Yposition Zposition Zrotation Xrotation Yrotation 
							JOINT Hand_L
							{
								OFFSET 22.2916 0.0 0.0
								CHANNELS 6 Xposition Yposition Zposition Zrotation Xrotation Yrotation 
								End Site
								{
									OFFSET 0.0 0.0 0.0
								}
							}
						}
					}
				}
				JOINT Shoulder_R
				{
					OFFSET 12.9945 -0.242716 -4.98039
					CHANNELS 6 Xposition Yposition Zposition Zrotation Xrotation Yrotation 
					JOINT UpperArm_R
					{
						OFFSET -5.34813 0.0 0.0
						CHANNELS 6 Xposition Yposition Zposition Zrotation Xrotation Yrotation 
						JOINT LowerArm_R
						{
							OFFSET -24.3289 0.000322201 0.0
							CHANNELS 6 Xposition Yposition Zposition Zrotation Xrotation Yrotation 
							JOINT Hand_R
							{
								OFFSET -22.2915 -0.000108084 0.0
								CHANNELS 6 Xposition Yposition Zposition Zrotation Xrotation Yrotation 
								End Site
								{
									OFFSET 0.0 0.0 0.0
								}
							}
						}
					}
				}
			}
		}
		JOINT UpperLeg_L
		{
			OFFSET -2.19248 -6.46944 0.0
			CHANNELS 6 Xposition Yposition Zposition Zrotation Xrotation Yrotation 
			JOINT LowerLeg_L
			{
				OFFSET 39.0811 0.0 -1.23785e-05
				CHANNELS 6 Xposition Yposition Zposition Zrotation Xrotation Yrotation 
				JOINT Foot_L
				{
					OFFSET 40.9854 0.0 -1.26872e-05
					CHANNELS 6 Xposition Yposition Zposition Zrotation Xrotation Yrotation 
					JOINT Toes_L
					{
						OFFSET 11.7543 0.0 0.0
						CHANNELS 6 Xposition Yposition Zposition Zrotation Xrotation Yrotation 
						End Site
						{
							OFFSET 0.0 0.0 0.0
						}
					}
				}
			}
		}
		JOINT UpperLeg_R
		{
			OFFSET -2.19251 6.46944 0.0
			CHANNELS 6 Xposition Yposition Zposition Zrotation Xrotation Yrotation 
			JOINT LowerLeg_R
			{
				OFFSET -39.0811 -0.00228153 -0.0401928
				CHANNELS 6 Xposition Yposition Zposition Zrotation Xrotation Yrotation 
				JOINT Foot_R
				{
					OFFSET -40.9854 0.0 0.0
					CHANNELS 6 Xposition Yposition Zposition Zrotation Xrotation Yrotation 
					JOINT Toes_R
					{
						OFFSET -11.7543 0.0 0.0
						CHANNELS 6 Xposition Yposition Zposition Zrotation Xrotation Yrotation 
						End Site
						{
							OFFSET 0.0 0.0 0.0
						}
					}
				}
			}
		}
	}
}
MOTION
Frames:	5
Frame Time:	0.0333333
0.000000 0.000000 0.000000 0.000000 0.000000 -0.000000 127.917000 90.029700 153.497000 93.648700 -61.538600 4.278380 15.735700 0.000005 -0.000001 90.284200 80.924800 -90.653700 8.984550 -0.406207 -0.000000 10.384400 0.081004 -0.745869 16.377300 -0.000001 -0.000001 3.118070 -13.709500 3.500290 6.456720 -0.000001 -0.000000 -0.353013 -17.537000 3.765340 12.994200 -0.242716 4.980390 -90.942700 3.127300 -73.215400 5.348090 -0.000007 -0.000001 -67.676500 33.044200 -9.022270 24.328600 0.000019 0.000005 7.912540 18.365300 -23.803800 22.291600 -0.000001 0.000005 9.723860 5.224400 2.100770 12.994500 -0.242716 -4.980390 88.720200 8.308020 -81.211200 -5.348130 -0.000001 -0.000004 -56.128100 28.989900 -22.747900 -24.328900 0.000322 -0.000009 -0.952467 -1.589670 -30.908900 -22.291500 -0.000108 -0.000004 18.586100 5.430980 -3.972010 -2.192480 -6.469440 -0.000000 -175.552000 -6.716340 -23.363700 39.081100 -0.000007 -0.000012 0.009776 -0.012798 37.370800 40.985400 -0.000006 -0.000013 -2.365990 0.456785 -61.935900 11.754300 -0.000000 0.000003 -0.003060 -0.041281 -18.255600 -2.192510 6.469440 -0.000001 -176.090000 14.588700 169.786000 -39.081100 -0.002282 -0.040193 -0.198589 0.313100 32.813900 -40.985400 0.000008 0.000006 11.145600 5.215430 -73.612400 -11.754300 -0.000006 -0.000006 -0.006067 -0.071440 -19.480600
0.000000 0.000000 0.000000 0.000000 0.000000 -0.000000 126.619000 89.920800 154.868000 92.271000 -63.767800 2.838060 15.735700 0.000005 -0.000001 91.048500 80.928800 -91.346700 8.984550 -0.406207 -0.000000 10.374300 0.322955 -0.625489 16.377300 -0.000001 -0.000001 2.799140 -13.283600 3.377290 6.456720 -0.000001 -0.000000 -0.473918 -16.955500 3.738610 12.994200 -0.242716 4.980390 -90.931700 3.096470 -73.245800 5.348090 -0.000007 -0.000001 -68.797200 33.615500 -8.039750 24.328600 0.000019 0.000005 7.213360 19.165300 -21.083300 22.291600 -0.000001 0.000005 9.450720 5.214320 2.357370 12.994500 -0.242716 -4.980390 88.755500 8.184970 -81.324200 -5.348130 -0.000001 -0.000004 -55.074500 29.392000 -24.317600 -24.328900 0.000322 -0.000009 -1.050820 -1.575900 -33.674600 -22.291500 -0.000108 -0.000004 19.035700 5.438450 -4.231560 -2.192480 -6.469440 -0.000000 -174.162000 -6.074540 -23.219100 39.081100 -0.000007 -0.000012 -0.084903 0.149333 29.620300 40.985400 -0.000006 -0.000013 -5.617580 4.571570 -61.146600 11.754300 -0.000000 0.000003 -0.003255 -0.043461 -18.344400 -2.192510 6.469440 -0.000001 -176.175000 13.558500 171.110000 -39.081100 -0.002282 -0.040193 -0.201884 0.322145 32.494000 -40.985400 0.000008 0.000006 11.028400 6.375020 -74.745200 -11.754300 -0.000006 -0.000006 -0.005598 -0.067143 -19.305400
0.000000 0.000000 0.000000 0.000000 0.000000 -0.000000 125.112000 89.711400 156.492000 91.672400 -65.866700 2.285230 15.735700 0.000005 -0.000001 91.467600 80.911100 -91.832800 8.984550 -0.406207 -0.000000 10.407600 0.454003 -0.771281 16.377300 -0.000001 -0.000001 2.697620 -12.902500 3.354510 6.456720 -0.000001 -0.000000 -0.606173 -16.397600 3.640110 12.994200 -0.242716 4.980390 -90.926200 3.102600 -73.370200 5.348090 -0.000007 -0.000001 -69.679800 33.591100 -7.482720 24.328600 0.000019 0.000005 6.349070 19.646700 -18.311300 22.291600 -0.000001 0.000005 9.193640 5.195680 2.828040 12.994500 -0.242716 -4.980390 88.788700 8.113380 -81.479200 -5.348130 -0.000001 -0.000004 -54.442000 29.600300 -25.371400 -24.328900 0.000322 -0.000009 -1.118470 -1.546270 -35.858200 -22.291500 -0.000108 -0.000004 19.286200 5.438840 -4.245260 -2.192480 -6.469440 -0.000000 -174.133000 -6.281840 -24.997500 39.081100 -0.000007 -0.000012 -0.048353 0.091820 27.771900 40.985400 -0.000006 -0.000013 -5.602920 7.222290 -59.758800 11.754300 -0.000000 0.000003 -0.003145 -0.042237 -18.294500 -2.192510 6.469440 -0.000001 -176.821000 12.259900 172.596000 -39.081100 -0.002282 -0.040193 -0.196811 0.312628 32.622700 -40.985400 0.000008 0.000006 11.054200 6.986000 -76.277200 -11.754300 -0.000006 -0.000006 -0.005203 -0.063414 -19.153400
0.000000 0.000000 0.000000 0.000000 0.000000 -0.000000 123.384000 89.427900 158.438000 92.868100 -67.566200 3.367790 15.735700 0.000005 -0.000001 90.924600 80.975600 -91.589700 8.984550 -0.406207 -0.000000 10.282400 0.274748 -1.353960 16.377300 -0.000001 -0.000001 2.905400 -12.549100 3.367620 6.456720 -0.000001 -0.000000 -0.637877 -15.917100 3.630250 12.994200 -0.242716 4.980390 -90.941500 3.170190 -73.450400 5.348090 -0.000007 -0.000001 -70.058800 33.558200 -7.487200 24.328600 0.000019 0.000005 5.604110 20.347000 -15.759600 22.291600 -0.000001 0.000005 9.245720 5.177730 3.270820 12.994500 -0.242716 -4.980390 88.785500 8.205340 -81.550700 -5.348130 -0.000001 -0.000004 -53.996000 29.862800 -26.017300 -24.328900 0.000322 -0.000009 -1.249890 -1.645860 -37.196700 -22.291500 -0.000108 -0.000004 19.455100 5.441610 -4.342380 -2.192480 -6.469440 -0.000000 -175.395000 -6.991770 -25.918800 39.081100 -0.000007 -0.000012 -0.053437 0.098190 28.556500 40.985400 -0.000006 -0.000013 -4.674910 7.760010 -57.179300 11.754300 -0.000000 0.000003 -0.003004 -0.040659 -18.230300 -2.192510 6.469440 -0.000001 -178.210000 10.661300 174.100000 -39.081100 -0.002282 -0.040193 -0.127617 0.200941 33.084200 -40.985400 0.000008 0.000006 11.517600 6.700800 -78.246300 -11.754300 -0.000006 -0.000006 -0.004530 -0.056839 -18.885500
0.000000 0.000000 0.000000 0.000000 0.000000 -0.000000 121.244000 88.941600 160.652000 94.947800 -69.370800 5.550410 15.735700 0.000005 -0.000001 90.607400 81.109000 -91.635400 8.984550 -0.406207 -0.000000 10.017400 0.167138 -2.069180 16.377300 -0.000001 -0.000001 3.259970 -12.235400 3.296870 6.456720 -0.000001 -0.000000 -0.307811 -15.509600 3.565250 12.994200 -0.242716 4.980390 -90.937300 3.129860 -73.319500 5.348090 -0.000007 -0.000001 -70.198600 33.573400 -7.697660 24.328600 0.000019 0.000005 5.111950 20.987400 -14.023900 22.291600 -0.000001 0.000005 8.902150 5.154980 3.825090 12.994500 -0.242716 -4.980390 88.772000 8.158620 -81.410800 -5.348130 -0.000001 -0.000004 -54.141300 30.281500 -25.907600 -24.328900 0.000322 -0.000009 -1.256670 -1.608690 -37.979500 -22.291500 -0.000108 -0.000004 19.453700 5.445800 -4.489940 -2.192480 -6.469440 -0.000000 -176.267000 -6.031530 -25.903700 39.081100 -0.000007 -0.000012 -0.117780 0.186712 32.244500 40.985400 -0.000006 -0.000013 -3.851250 7.632050 -55.407500 11.754300 -0.000000 0.000003 -0.003477 -0.045898 -18.443500 -2.192510 6.469440 -0.000001 -179.866000 8.665320 175.736000 -39.081100 -0.002282 -0.040193 0.005369 -0.003045 34.297600 -40.985400 0.000008 0.000006 12.364300 5.872920 -80.419000 -11.754300 -0.000006 -0.000006 -0.003819 -0.049549 -18.588500
